<mxfile host="drawio-plugin" modified="2024-01-28T15:05:23.804Z" agent="5.0 (Windows NT 6.2; Win64; x64) AppleWebKit/537.36 (KHTML, like Gecko) Chrome/104.0.5112.102 Safari/537.36" etag="0Q9qEukJOJPyein_tCpK" version="20.5.3" type="embed" pages="2"><diagram id="85vH5ON7pNPydxreY5XD" name="architecture"><mxGraphModel dx="659" dy="646" grid="1" gridSize="10" guides="1" tooltips="1" connect="1" arrows="1" fold="1" page="1" pageScale="1" pageWidth="850" pageHeight="1100" math="0" shadow="0"><root><mxCell id="0"/><mxCell id="1" parent="0"/><mxCell id="6" style="edgeStyle=orthogonalEdgeStyle;rounded=0;orthogonalLoop=1;jettySize=auto;html=1;entryX=0;entryY=0.5;entryDx=0;entryDy=0;startArrow=classic;startFill=1;" parent="1" source="7" target="12" edge="1"><mxGeometry relative="1" as="geometry"><Array as="points"><mxPoint x="340" y="280"/><mxPoint x="340" y="280"/></Array></mxGeometry></mxCell><mxCell id="7" value="user" style="shape=umlActor;verticalLabelPosition=bottom;verticalAlign=top;html=1;outlineConnect=0;" parent="1" vertex="1"><mxGeometry x="60" y="250" width="30" height="60" as="geometry"/></mxCell><mxCell id="19" style="edgeStyle=orthogonalEdgeStyle;rounded=0;orthogonalLoop=1;jettySize=auto;html=1;entryX=0;entryY=0.5;entryDx=0;entryDy=0;startArrow=classic;startFill=1;" parent="1" source="9" target="18" edge="1"><mxGeometry relative="1" as="geometry"/></mxCell><mxCell id="9" value="admin" style="shape=umlActor;verticalLabelPosition=bottom;verticalAlign=top;html=1;outlineConnect=0;" parent="1" vertex="1"><mxGeometry x="60" y="520" width="30" height="60" as="geometry"/></mxCell><mxCell id="10" style="edgeStyle=orthogonalEdgeStyle;rounded=0;orthogonalLoop=1;jettySize=auto;html=1;entryX=0;entryY=0.5;entryDx=0;entryDy=0;startArrow=classic;startFill=1;" parent="1" source="11" target="13" edge="1"><mxGeometry relative="1" as="geometry"/></mxCell><mxCell id="11" value="courier" style="shape=umlActor;verticalLabelPosition=bottom;verticalAlign=top;html=1;outlineConnect=0;" parent="1" vertex="1"><mxGeometry x="60" y="800" width="30" height="60" as="geometry"/></mxCell><mxCell id="28" style="edgeStyle=orthogonalEdgeStyle;rounded=0;orthogonalLoop=1;jettySize=auto;html=1;entryX=0.145;entryY=0;entryDx=0;entryDy=4.35;entryPerimeter=0;fillColor=#ffe6cc;strokeColor=#d79b00;" parent="1" source="12" target="24" edge="1"><mxGeometry relative="1" as="geometry"/></mxCell><mxCell id="50" style="edgeStyle=orthogonalEdgeStyle;rounded=0;orthogonalLoop=1;jettySize=auto;html=1;entryX=0.5;entryY=0;entryDx=0;entryDy=0;fillColor=#d5e8d4;strokeColor=#82b366;" parent="1" source="12" target="31" edge="1"><mxGeometry relative="1" as="geometry"><Array as="points"><mxPoint x="1050" y="300"/></Array></mxGeometry></mxCell><mxCell id="12" value="user-service" style="rounded=0;whiteSpace=wrap;html=1;" parent="1" vertex="1"><mxGeometry x="620" y="250" width="120" height="60" as="geometry"/></mxCell><mxCell id="30" style="edgeStyle=orthogonalEdgeStyle;rounded=0;orthogonalLoop=1;jettySize=auto;html=1;entryX=0.855;entryY=1;entryDx=0;entryDy=-4.35;entryPerimeter=0;fillColor=#ffe6cc;strokeColor=#d79b00;" parent="1" source="13" target="24" edge="1"><mxGeometry relative="1" as="geometry"><Array as="points"><mxPoint x="1551" y="830"/></Array></mxGeometry></mxCell><mxCell id="37" style="edgeStyle=orthogonalEdgeStyle;rounded=0;orthogonalLoop=1;jettySize=auto;html=1;entryX=0.5;entryY=1;entryDx=0;entryDy=0;fillColor=#d5e8d4;strokeColor=#82b366;" parent="1" source="13" target="31" edge="1"><mxGeometry relative="1" as="geometry"><mxPoint x="810" y="450" as="targetPoint"/><Array as="points"><mxPoint x="1050" y="810"/></Array></mxGeometry></mxCell><mxCell id="13" value="courier-service" style="rounded=0;whiteSpace=wrap;html=1;" parent="1" vertex="1"><mxGeometry x="620" y="800" width="120" height="60" as="geometry"/></mxCell><mxCell id="15" value="&lt;div style=&quot;background-color:#ffffff;color:#080808;font-family:'JetBrains Mono',monospace;font-size:9,8pt;&quot;&gt;&lt;pre&gt;&lt;div style=&quot;font-family: &amp;quot;JetBrains Mono&amp;quot;, monospace;&quot;&gt;&lt;pre&gt;1) /signup - create user&lt;br&gt;2) /login&lt;br&gt;3) /orders - post - create delivery order&lt;br&gt;4) /orders/{id}/destination - update - update order destination&lt;br&gt;5) /orders/{id}/cancel - post - cancel order&lt;br&gt;6) /orders/{id} - get order details created by user&lt;br&gt;7) /orders - get orders details created by user&lt;/pre&gt;&lt;/div&gt;&lt;/pre&gt;&lt;/div&gt;" style="text;html=1;strokeColor=none;fillColor=none;align=left;verticalAlign=middle;whiteSpace=wrap;rounded=0;" parent="1" vertex="1"><mxGeometry x="70" y="120" width="420" height="100" as="geometry"/></mxCell><mxCell id="16" value="&lt;div style=&quot;background-color:#ffffff;color:#080808;font-family:'JetBrains Mono',monospace;font-size:9,8pt;&quot;&gt;&lt;pre&gt;1) /login&lt;br&gt;2) /orders - get - get all orders&lt;br&gt;3) /orders/{id}/status - post - change order status&lt;br&gt;4) /orders/{id}/assign - post - assign order to courier&lt;br&gt;5) /orders/{id}/track - get - track order&lt;br&gt;6) /couriers - post - create courier acc&lt;br&gt;&lt;div style=&quot;&quot;&gt;&lt;span style=&quot;font-family: &amp;quot;JetBrains Mono&amp;quot;, monospace; white-space: normal;&quot;&gt;7) /couriers - get - list of couriers with statuses&lt;/span&gt;&lt;/div&gt;&lt;/pre&gt;&lt;/div&gt;" style="text;html=1;strokeColor=none;fillColor=none;align=left;verticalAlign=middle;whiteSpace=wrap;rounded=0;" parent="1" vertex="1"><mxGeometry x="70" y="380" width="270" height="140" as="geometry"/></mxCell><mxCell id="17" value="&lt;div style=&quot;background-color:#ffffff;color:#080808;font-family:'JetBrains Mono',monospace;font-size:9,8pt;&quot;&gt;&lt;pre&gt;1) /login&lt;br&gt;2) /orders - get - view all assigned orders&lt;br&gt;3) /orders/{id}/status - update - change order delivery status&lt;br&gt;4) /orders/{id}/ - get - get order delivery details&lt;br&gt;&lt;/pre&gt;&lt;/div&gt;" style="text;html=1;strokeColor=none;fillColor=none;align=left;verticalAlign=middle;whiteSpace=wrap;rounded=0;" parent="1" vertex="1"><mxGeometry x="70" y="640" width="420" height="130" as="geometry"/></mxCell><mxCell id="29" style="edgeStyle=orthogonalEdgeStyle;rounded=0;orthogonalLoop=1;jettySize=auto;html=1;exitX=0.5;exitY=1;exitDx=0;exitDy=0;fillColor=#ffe6cc;strokeColor=#d79b00;" parent="1" source="18" target="24" edge="1"><mxGeometry relative="1" as="geometry"/></mxCell><mxCell id="54" style="edgeStyle=orthogonalEdgeStyle;rounded=0;orthogonalLoop=1;jettySize=auto;html=1;entryX=0;entryY=0.5;entryDx=0;entryDy=0;fillColor=#d5e8d4;strokeColor=#82b366;" parent="1" source="18" target="31" edge="1"><mxGeometry relative="1" as="geometry"><Array as="points"><mxPoint x="680" y="480"/></Array></mxGeometry></mxCell><mxCell id="18" value="admin-service" style="rounded=0;whiteSpace=wrap;html=1;" parent="1" vertex="1"><mxGeometry x="620" y="520" width="120" height="60" as="geometry"/></mxCell><mxCell id="21" style="edgeStyle=orthogonalEdgeStyle;rounded=0;orthogonalLoop=1;jettySize=auto;html=1;entryX=0.5;entryY=0;entryDx=0;entryDy=0;fillColor=#dae8fc;strokeColor=#6c8ebf;startArrow=classic;startFill=1;" parent="1" source="20" target="12" edge="1"><mxGeometry relative="1" as="geometry"/></mxCell><mxCell id="22" style="edgeStyle=orthogonalEdgeStyle;rounded=0;orthogonalLoop=1;jettySize=auto;html=1;fillColor=#dae8fc;strokeColor=#6c8ebf;startArrow=classic;startFill=1;" parent="1" source="20" target="18" edge="1"><mxGeometry relative="1" as="geometry"><Array as="points"><mxPoint x="760" y="100"/><mxPoint x="760" y="530"/></Array></mxGeometry></mxCell><mxCell id="23" style="edgeStyle=orthogonalEdgeStyle;rounded=0;orthogonalLoop=1;jettySize=auto;html=1;entryX=0.5;entryY=0;entryDx=0;entryDy=0;fillColor=#dae8fc;strokeColor=#6c8ebf;startArrow=classic;startFill=1;" parent="1" source="20" target="13" edge="1"><mxGeometry relative="1" as="geometry"><mxPoint x="730" y="730" as="targetPoint"/><Array as="points"><mxPoint x="750" y="90"/><mxPoint x="750" y="730"/><mxPoint x="680" y="730"/></Array></mxGeometry></mxCell><mxCell id="34" style="edgeStyle=orthogonalEdgeStyle;rounded=0;orthogonalLoop=1;jettySize=auto;html=1;fillColor=#ffe6cc;strokeColor=#d79b00;entryX=0.5;entryY=0;entryDx=0;entryDy=0;entryPerimeter=0;" parent="1" source="20" target="24" edge="1"><mxGeometry relative="1" as="geometry"><mxPoint x="1590" y="260" as="targetPoint"/><Array as="points"><mxPoint x="1530" y="80"/></Array></mxGeometry></mxCell><mxCell id="20" value="auth server" style="rounded=0;whiteSpace=wrap;html=1;fillColor=#dae8fc;strokeColor=#6c8ebf;" parent="1" vertex="1"><mxGeometry x="620" y="60" width="120" height="60" as="geometry"/></mxCell><mxCell id="24" value="DB" style="shape=cylinder3;whiteSpace=wrap;html=1;boundedLbl=1;backgroundOutline=1;size=15;fillColor=#ffe6cc;strokeColor=#d79b00;" parent="1" vertex="1"><mxGeometry x="1500" y="320" width="60" height="80" as="geometry"/></mxCell><mxCell id="31" value="message broker" style="rounded=0;whiteSpace=wrap;html=1;fillColor=#d5e8d4;strokeColor=#82b366;" parent="1" vertex="1"><mxGeometry x="990" y="450" width="120" height="60" as="geometry"/></mxCell><mxCell id="40" style="edgeStyle=orthogonalEdgeStyle;rounded=0;orthogonalLoop=1;jettySize=auto;html=1;entryX=0.145;entryY=1;entryDx=0;entryDy=-4.35;entryPerimeter=0;fillColor=#ffe6cc;strokeColor=#d79b00;" parent="1" source="35" target="24" edge="1"><mxGeometry relative="1" as="geometry"/></mxCell><mxCell id="49" value="" style="edgeStyle=orthogonalEdgeStyle;rounded=0;orthogonalLoop=1;jettySize=auto;html=1;fillColor=#d5e8d4;strokeColor=#82b366;" parent="1" source="35" target="31" edge="1"><mxGeometry relative="1" as="geometry"/></mxCell><mxCell id="35" value="order service" style="rounded=0;whiteSpace=wrap;html=1;" parent="1" vertex="1"><mxGeometry x="1150" y="450" width="120" height="60" as="geometry"/></mxCell><mxCell id="58" value="&lt;div style=&quot;background-color:#ffffff;color:#080808;font-family:'JetBrains Mono',monospace;font-size:9,8pt;&quot;&gt;&lt;pre&gt;create order&lt;br&gt;update order dest&lt;br&gt;cancel order&lt;/pre&gt;&lt;/div&gt;" style="text;html=1;strokeColor=#82b366;fillColor=#FFFFFF;align=left;verticalAlign=middle;whiteSpace=wrap;rounded=0;" parent="1" vertex="1"><mxGeometry x="770" y="310" width="120" height="50" as="geometry"/></mxCell><mxCell id="59" value="&lt;div style=&quot;background-color:#ffffff;color:#080808;font-family:'JetBrains Mono',monospace;font-size:9,8pt;&quot;&gt;&lt;pre&gt;change order status&lt;br&gt;send coordinates&lt;/pre&gt;&lt;/div&gt;" style="text;html=1;strokeColor=#82b366;fillColor=default;align=left;verticalAlign=middle;whiteSpace=wrap;rounded=0;" parent="1" vertex="1"><mxGeometry x="760" y="760" width="130" height="40" as="geometry"/></mxCell><mxCell id="60" value="&lt;div style=&quot;background-color:#ffffff;color:#080808;font-family:'JetBrains Mono',monospace;font-size:9,8pt;&quot;&gt;&lt;pre&gt;change order status&lt;br&gt;&lt;div style=&quot;&quot;&gt;&lt;span style=&quot;font-family: &amp;quot;JetBrains Mono&amp;quot;, monospace; white-space: normal;&quot;&gt;assign order to courier&lt;/span&gt;&lt;/div&gt;&lt;/pre&gt;&lt;/div&gt;" style="text;html=1;strokeColor=#82b366;fillColor=#FFFFFF;align=left;verticalAlign=middle;whiteSpace=wrap;rounded=0;" parent="1" vertex="1"><mxGeometry x="770" y="430" width="160" height="40" as="geometry"/></mxCell><mxCell id="61" value="&lt;div style=&quot;background-color: rgb(255, 255, 255); font-family: &amp;quot;JetBrains Mono&amp;quot;, monospace;&quot;&gt;&lt;pre&gt;get order &lt;br&gt;get all orders&lt;/pre&gt;&lt;/div&gt;" style="text;html=1;strokeColor=#d79b00;fillColor=#FFFFFF;align=left;verticalAlign=middle;whiteSpace=wrap;rounded=0;fontColor=#000000;" parent="1" vertex="1"><mxGeometry x="775" y="220" width="95" height="40" as="geometry"/></mxCell><mxCell id="63" value="get all orders" style="text;html=1;align=center;verticalAlign=middle;resizable=0;points=[];autosize=1;strokeColor=#d79b00;fillColor=#FFFFFF;" parent="1" vertex="1"><mxGeometry x="760" y="840" width="90" height="30" as="geometry"/></mxCell><mxCell id="66" value="&lt;pre style=&quot;color: rgb(8, 8, 8);&quot;&gt;get all orders&lt;br&gt;track order&lt;br&gt;create courier acc&lt;br&gt;get all couriers&lt;/pre&gt;" style="text;html=1;strokeColor=#d6b656;fillColor=#FFFFFF;align=left;verticalAlign=middle;whiteSpace=wrap;rounded=0;" parent="1" vertex="1"><mxGeometry x="775" y="530" width="160" height="60" as="geometry"/></mxCell><mxCell id="68" value="&lt;div style=&quot;background-color:#ffffff;color:#080808;font-family:'JetBrains Mono',monospace;font-size:9,8pt;&quot;&gt;&lt;pre&gt;create order&lt;br&gt;update order destination&lt;br&gt;cancel order&lt;br&gt;change order status&lt;br&gt;assign order to courier&lt;br&gt;update order coordinates&lt;/pre&gt;&lt;/div&gt;" style="text;html=1;strokeColor=#d79b00;fillColor=#FFFFFF;align=left;verticalAlign=middle;whiteSpace=wrap;rounded=0;" parent="1" vertex="1"><mxGeometry x="1290" y="369" width="170" height="101" as="geometry"/></mxCell></root></mxGraphModel></diagram><diagram id="EYHSfVa63TzZz09VReWB" name="database"><mxGraphModel dx="1509" dy="646" grid="1" gridSize="10" guides="1" tooltips="1" connect="1" arrows="1" fold="1" page="1" pageScale="1" pageWidth="850" pageHeight="1100" math="0" shadow="0"><root><mxCell id="0"/><mxCell id="1" parent="0"/><mxCell id="xsoyrQmpPAoxh_bIlHDa-2" value="users" style="swimlane;fontStyle=0;childLayout=stackLayout;horizontal=1;startSize=30;horizontalStack=0;resizeParent=1;resizeParentMax=0;resizeLast=0;collapsible=1;marginBottom=0;whiteSpace=wrap;html=1;strokeColor=default;fontColor=#000000;fillColor=#FFFFFF;" parent="1" vertex="1"><mxGeometry x="-70" y="230" width="150" height="90" as="geometry"/></mxCell><mxCell id="xsoyrQmpPAoxh_bIlHDa-3" value="id:&lt;span style=&quot;white-space: pre;&quot;&gt;&#9;&lt;/span&gt;&lt;span style=&quot;white-space: pre;&quot;&gt;&#9;&lt;/span&gt;&lt;span style=&quot;white-space: pre;&quot;&gt;&#9;&lt;/span&gt;&lt;span style=&quot;white-space: pre;&quot;&gt;&#9;&lt;/span&gt;uuid" style="text;strokeColor=none;fillColor=none;align=left;verticalAlign=middle;spacingLeft=4;spacingRight=4;overflow=hidden;points=[[0,0.5],[1,0.5]];portConstraint=eastwest;rotatable=0;whiteSpace=wrap;html=1;fontColor=#000000;" parent="xsoyrQmpPAoxh_bIlHDa-2" vertex="1"><mxGeometry y="30" width="150" height="30" as="geometry"/></mxCell><mxCell id="xsoyrQmpPAoxh_bIlHDa-5" value="vip:&lt;span style=&quot;white-space: pre;&quot;&gt;&#9;&lt;/span&gt;&lt;span style=&quot;white-space: pre;&quot;&gt;&#9;&lt;/span&gt;&lt;span style=&quot;white-space: pre;&quot;&gt;&#9;&lt;span style=&quot;white-space: pre;&quot;&gt;&#9;&lt;/span&gt;&lt;/span&gt;bool" style="text;strokeColor=none;fillColor=none;align=left;verticalAlign=middle;spacingLeft=4;spacingRight=4;overflow=hidden;points=[[0,0.5],[1,0.5]];portConstraint=eastwest;rotatable=0;whiteSpace=wrap;html=1;fontColor=#000000;" parent="xsoyrQmpPAoxh_bIlHDa-2" vertex="1"><mxGeometry y="60" width="150" height="30" as="geometry"/></mxCell><mxCell id="xsoyrQmpPAoxh_bIlHDa-6" value="parcels" style="swimlane;fontStyle=0;childLayout=stackLayout;horizontal=1;startSize=30;horizontalStack=0;resizeParent=1;resizeParentMax=0;resizeLast=0;collapsible=1;marginBottom=0;whiteSpace=wrap;html=1;strokeColor=default;fontColor=#000000;fillColor=#FFFFFF;" parent="1" vertex="1"><mxGeometry x="-40" y="500" width="145" height="120" as="geometry"/></mxCell><mxCell id="xsoyrQmpPAoxh_bIlHDa-7" value="id:&lt;span style=&quot;white-space: pre;&quot;&gt;&#9;&lt;/span&gt;&lt;span style=&quot;white-space: pre;&quot;&gt;&#9;&lt;/span&gt;&lt;span style=&quot;white-space: pre;&quot;&gt;&#9;&lt;/span&gt;&lt;span style=&quot;white-space: pre;&quot;&gt;&#9;&lt;/span&gt;uuid" style="text;strokeColor=none;fillColor=none;align=left;verticalAlign=middle;spacingLeft=4;spacingRight=4;overflow=hidden;points=[[0,0.5],[1,0.5]];portConstraint=eastwest;rotatable=0;whiteSpace=wrap;html=1;fontColor=#000000;" parent="xsoyrQmpPAoxh_bIlHDa-6" vertex="1"><mxGeometry y="30" width="145" height="30" as="geometry"/></mxCell><mxCell id="xsoyrQmpPAoxh_bIlHDa-18" value="user_id:&lt;span style=&quot;white-space: pre;&quot;&gt;&#9;&lt;span style=&quot;white-space: pre;&quot;&gt;&#9;&lt;/span&gt;&lt;span style=&quot;white-space: pre;&quot;&gt;&#9;&lt;/span&gt;&lt;/span&gt;uuid" style="text;strokeColor=none;fillColor=none;align=left;verticalAlign=middle;spacingLeft=4;spacingRight=4;overflow=hidden;points=[[0,0.5],[1,0.5]];portConstraint=eastwest;rotatable=0;whiteSpace=wrap;html=1;fontColor=#000000;" parent="xsoyrQmpPAoxh_bIlHDa-6" vertex="1"><mxGeometry y="60" width="145" height="30" as="geometry"/></mxCell><mxCell id="xsoyrQmpPAoxh_bIlHDa-8" value="item_name:&lt;span style=&quot;white-space: pre;&quot;&gt;&#9;&lt;/span&gt;&lt;span style=&quot;white-space: pre;&quot;&gt;&#9;&lt;/span&gt;string" style="text;strokeColor=none;fillColor=none;align=left;verticalAlign=middle;spacingLeft=4;spacingRight=4;overflow=hidden;points=[[0,0.5],[1,0.5]];portConstraint=eastwest;rotatable=0;whiteSpace=wrap;html=1;fontColor=#000000;" parent="xsoyrQmpPAoxh_bIlHDa-6" vertex="1"><mxGeometry y="90" width="145" height="30" as="geometry"/></mxCell><mxCell id="xsoyrQmpPAoxh_bIlHDa-10" value="orders" style="swimlane;fontStyle=0;childLayout=stackLayout;horizontal=1;startSize=30;horizontalStack=0;resizeParent=1;resizeParentMax=0;resizeLast=0;collapsible=1;marginBottom=0;whiteSpace=wrap;html=1;strokeColor=default;fontColor=#000000;fillColor=#FFFFFF;" parent="1" vertex="1"><mxGeometry x="180" y="470" width="210" height="270" as="geometry"/></mxCell><mxCell id="xsoyrQmpPAoxh_bIlHDa-11" value="id:&lt;span style=&quot;white-space: pre;&quot;&gt;&#9;&lt;span style=&quot;white-space: pre;&quot;&gt;&#9;&lt;/span&gt;&lt;span style=&quot;white-space: pre;&quot;&gt;&#9;&lt;span style=&quot;white-space: pre;&quot;&gt;&#9;&lt;/span&gt;&lt;span style=&quot;white-space: pre;&quot;&gt;&#9;&lt;/span&gt;&lt;/span&gt;&lt;/span&gt;uuid" style="text;strokeColor=none;fillColor=none;align=left;verticalAlign=middle;spacingLeft=4;spacingRight=4;overflow=hidden;points=[[0,0.5],[1,0.5]];portConstraint=eastwest;rotatable=0;whiteSpace=wrap;html=1;fontColor=#000000;" parent="xsoyrQmpPAoxh_bIlHDa-10" vertex="1"><mxGeometry y="30" width="210" height="30" as="geometry"/></mxCell><mxCell id="xsoyrQmpPAoxh_bIlHDa-12" value="&lt;span style=&quot;color: rgb(0, 0, 0); font-family: Helvetica; font-size: 12px; font-style: normal; font-variant-ligatures: normal; font-variant-caps: normal; font-weight: 400; letter-spacing: normal; orphans: 2; text-align: left; text-indent: 0px; text-transform: none; widows: 2; word-spacing: 0px; -webkit-text-stroke-width: 0px; background-color: rgb(248, 249, 250); text-decoration-thickness: initial; text-decoration-style: initial; text-decoration-color: initial; float: none; display: inline !important;&quot;&gt;parcel_id:&lt;span style=&quot;white-space: pre;&quot;&gt;&#9;&lt;span style=&quot;white-space: pre;&quot;&gt;&#9;&lt;/span&gt;&lt;span style=&quot;white-space: pre;&quot;&gt;&#9;&lt;/span&gt;&lt;/span&gt;uuid&lt;/span&gt;" style="text;strokeColor=none;fillColor=none;align=left;verticalAlign=middle;spacingLeft=4;spacingRight=4;overflow=hidden;points=[[0,0.5],[1,0.5]];portConstraint=eastwest;rotatable=0;whiteSpace=wrap;html=1;fontColor=#000000;" parent="xsoyrQmpPAoxh_bIlHDa-10" vertex="1"><mxGeometry y="60" width="210" height="30" as="geometry"/></mxCell><mxCell id="xsoyrQmpPAoxh_bIlHDa-19" value="order_status_history_id:&lt;span style=&quot;white-space: pre;&quot;&gt;&#9;&lt;/span&gt;&lt;span style=&quot;white-space: pre;&quot;&gt;&#9;&lt;/span&gt;uuid" style="text;strokeColor=none;fillColor=none;align=left;verticalAlign=middle;spacingLeft=4;spacingRight=4;overflow=hidden;points=[[0,0.5],[1,0.5]];portConstraint=eastwest;rotatable=0;whiteSpace=wrap;html=1;fontColor=#000000;" parent="xsoyrQmpPAoxh_bIlHDa-10" vertex="1"><mxGeometry y="90" width="210" height="30" as="geometry"/></mxCell><mxCell id="xsoyrQmpPAoxh_bIlHDa-26" value="courier_id:&lt;span style=&quot;white-space: pre;&quot;&gt;&#9;&lt;/span&gt;&lt;span style=&quot;white-space: pre;&quot;&gt;&#9;&lt;span style=&quot;white-space: pre;&quot;&gt;&#9;&lt;/span&gt;&lt;/span&gt;uuid" style="text;strokeColor=none;fillColor=none;align=left;verticalAlign=middle;spacingLeft=4;spacingRight=4;overflow=hidden;points=[[0,0.5],[1,0.5]];portConstraint=eastwest;rotatable=0;whiteSpace=wrap;html=1;fontColor=#000000;" parent="xsoyrQmpPAoxh_bIlHDa-10" vertex="1"><mxGeometry y="120" width="210" height="30" as="geometry"/></mxCell><mxCell id="xsoyrQmpPAoxh_bIlHDa-20" value="created_time: &lt;span style=&quot;white-space: pre;&quot;&gt;&#9;&lt;/span&gt;&lt;span style=&quot;white-space: pre;&quot;&gt;&#9;&lt;/span&gt;&lt;span style=&quot;white-space: pre;&quot;&gt;&#9;&lt;/span&gt;timestamp" style="text;strokeColor=none;fillColor=none;align=left;verticalAlign=middle;spacingLeft=4;spacingRight=4;overflow=hidden;points=[[0,0.5],[1,0.5]];portConstraint=eastwest;rotatable=0;whiteSpace=wrap;html=1;fontColor=#000000;" parent="xsoyrQmpPAoxh_bIlHDa-10" vertex="1"><mxGeometry y="150" width="210" height="30" as="geometry"/></mxCell><mxCell id="VH7FuxmsLqqs_pFyywKN-19" value="order_location_id: &lt;span style=&quot;white-space: pre;&quot;&gt;&#9;&lt;/span&gt;&lt;span style=&quot;white-space: pre;&quot;&gt;&#9;&lt;/span&gt;uuid" style="text;strokeColor=none;fillColor=none;align=left;verticalAlign=middle;spacingLeft=4;spacingRight=4;overflow=hidden;points=[[0,0.5],[1,0.5]];portConstraint=eastwest;rotatable=0;whiteSpace=wrap;html=1;fontColor=#000000;" parent="xsoyrQmpPAoxh_bIlHDa-10" vertex="1"><mxGeometry y="180" width="210" height="30" as="geometry"/></mxCell><mxCell id="xsoyrQmpPAoxh_bIlHDa-29" value="start_time:&amp;nbsp;&lt;span style=&quot;white-space: pre;&quot;&gt;&#9;&lt;/span&gt;&lt;span style=&quot;white-space: pre;&quot;&gt;&#9;&lt;span style=&quot;white-space: pre;&quot;&gt;&#9;&lt;/span&gt;&lt;/span&gt;timestamp" style="text;strokeColor=none;fillColor=none;align=left;verticalAlign=middle;spacingLeft=4;spacingRight=4;overflow=hidden;points=[[0,0.5],[1,0.5]];portConstraint=eastwest;rotatable=0;whiteSpace=wrap;html=1;fontColor=#000000;" parent="xsoyrQmpPAoxh_bIlHDa-10" vertex="1"><mxGeometry y="210" width="210" height="30" as="geometry"/></mxCell><mxCell id="xsoyrQmpPAoxh_bIlHDa-30" value="finish_time:&amp;nbsp;&lt;span style=&quot;white-space: pre;&quot;&gt;&#9;&lt;span style=&quot;white-space: pre;&quot;&gt;&#9;&lt;/span&gt;&lt;/span&gt;&lt;span style=&quot;white-space: pre;&quot;&gt;&#9;&lt;/span&gt;timestamp" style="text;strokeColor=none;fillColor=none;align=left;verticalAlign=middle;spacingLeft=4;spacingRight=4;overflow=hidden;points=[[0,0.5],[1,0.5]];portConstraint=eastwest;rotatable=0;whiteSpace=wrap;html=1;fontColor=#000000;" parent="xsoyrQmpPAoxh_bIlHDa-10" vertex="1"><mxGeometry y="240" width="210" height="30" as="geometry"/></mxCell><mxCell id="xsoyrQmpPAoxh_bIlHDa-31" value="order_status_history" style="swimlane;fontStyle=0;childLayout=stackLayout;horizontal=1;startSize=30;horizontalStack=0;resizeParent=1;resizeParentMax=0;resizeLast=0;collapsible=1;marginBottom=0;whiteSpace=wrap;html=1;strokeColor=default;fontColor=#000000;fillColor=#FFFFFF;" parent="1" vertex="1"><mxGeometry x="-40" y="630" width="145" height="180" as="geometry"/></mxCell><mxCell id="xsoyrQmpPAoxh_bIlHDa-32" value="id:&lt;span style=&quot;white-space: pre;&quot;&gt;&#9;&lt;/span&gt;&lt;span style=&quot;white-space: pre;&quot;&gt;&#9;&lt;span style=&quot;white-space: pre;&quot;&gt;&#9;&lt;/span&gt;&lt;/span&gt;uuid" style="text;strokeColor=none;fillColor=none;align=left;verticalAlign=middle;spacingLeft=4;spacingRight=4;overflow=hidden;points=[[0,0.5],[1,0.5]];portConstraint=eastwest;rotatable=0;whiteSpace=wrap;html=1;fontColor=#000000;" parent="xsoyrQmpPAoxh_bIlHDa-31" vertex="1"><mxGeometry y="30" width="145" height="30" as="geometry"/></mxCell><mxCell id="VH7FuxmsLqqs_pFyywKN-3" value="order_id:&lt;span style=&quot;white-space: pre;&quot;&gt;&#9;&lt;span style=&quot;white-space: pre;&quot;&gt;&#9;&lt;/span&gt;&lt;/span&gt;uuid" style="text;strokeColor=none;fillColor=none;align=left;verticalAlign=middle;spacingLeft=4;spacingRight=4;overflow=hidden;points=[[0,0.5],[1,0.5]];portConstraint=eastwest;rotatable=0;whiteSpace=wrap;html=1;fontColor=#000000;" parent="xsoyrQmpPAoxh_bIlHDa-31" vertex="1"><mxGeometry y="60" width="145" height="30" as="geometry"/></mxCell><mxCell id="VH7FuxmsLqqs_pFyywKN-1" value="agent_id:&lt;span style=&quot;white-space: pre;&quot;&gt;&#9;&lt;span style=&quot;white-space: pre;&quot;&gt;&#9;&lt;/span&gt;&lt;/span&gt;uuid" style="text;strokeColor=none;fillColor=none;align=left;verticalAlign=middle;spacingLeft=4;spacingRight=4;overflow=hidden;points=[[0,0.5],[1,0.5]];portConstraint=eastwest;rotatable=0;whiteSpace=wrap;html=1;fontColor=#000000;" parent="xsoyrQmpPAoxh_bIlHDa-31" vertex="1"><mxGeometry y="90" width="145" height="30" as="geometry"/></mxCell><mxCell id="xsoyrQmpPAoxh_bIlHDa-33" value="order_status_id:&lt;span style=&quot;white-space: pre;&quot;&gt;&#9;&lt;/span&gt;int" style="text;strokeColor=none;fillColor=none;align=left;verticalAlign=middle;spacingLeft=4;spacingRight=4;overflow=hidden;points=[[0,0.5],[1,0.5]];portConstraint=eastwest;rotatable=0;whiteSpace=wrap;html=1;fontColor=#000000;" parent="xsoyrQmpPAoxh_bIlHDa-31" vertex="1"><mxGeometry y="120" width="145" height="30" as="geometry"/></mxCell><mxCell id="VH7FuxmsLqqs_pFyywKN-2" value="change_time:&lt;span style=&quot;white-space: pre;&quot;&gt;&#9;&lt;/span&gt;timestamp" style="text;strokeColor=none;fillColor=none;align=left;verticalAlign=middle;spacingLeft=4;spacingRight=4;overflow=hidden;points=[[0,0.5],[1,0.5]];portConstraint=eastwest;rotatable=0;whiteSpace=wrap;html=1;fontColor=#000000;" parent="xsoyrQmpPAoxh_bIlHDa-31" vertex="1"><mxGeometry y="150" width="145" height="30" as="geometry"/></mxCell><mxCell id="xsoyrQmpPAoxh_bIlHDa-35" value="couriers" style="swimlane;fontStyle=0;childLayout=stackLayout;horizontal=1;startSize=30;horizontalStack=0;resizeParent=1;resizeParentMax=0;resizeLast=0;collapsible=1;marginBottom=0;whiteSpace=wrap;html=1;strokeColor=default;fontColor=#000000;fillColor=#FFFFFF;" parent="1" vertex="1"><mxGeometry x="460" y="230" width="160" height="90" as="geometry"/></mxCell><mxCell id="xsoyrQmpPAoxh_bIlHDa-36" value="id:&lt;span style=&quot;white-space: pre;&quot;&gt;&#9;&lt;/span&gt;&lt;span style=&quot;white-space: pre;&quot;&gt;&#9;&lt;/span&gt;&lt;span style=&quot;white-space: pre;&quot;&gt;&#9;&lt;span style=&quot;white-space: pre;&quot;&gt;&#9;&lt;/span&gt;&lt;/span&gt;uuid" style="text;strokeColor=none;fillColor=none;align=left;verticalAlign=middle;spacingLeft=4;spacingRight=4;overflow=hidden;points=[[0,0.5],[1,0.5]];portConstraint=eastwest;rotatable=0;whiteSpace=wrap;html=1;fontColor=#000000;" parent="xsoyrQmpPAoxh_bIlHDa-35" vertex="1"><mxGeometry y="30" width="160" height="30" as="geometry"/></mxCell><mxCell id="xsoyrQmpPAoxh_bIlHDa-38" value="courier_status_id:&lt;span style=&quot;white-space: pre;&quot;&gt;&#9;&lt;/span&gt;int" style="text;strokeColor=none;fillColor=none;align=left;verticalAlign=middle;spacingLeft=4;spacingRight=4;overflow=hidden;points=[[0,0.5],[1,0.5]];portConstraint=eastwest;rotatable=0;whiteSpace=wrap;html=1;fontColor=#000000;" parent="xsoyrQmpPAoxh_bIlHDa-35" vertex="1"><mxGeometry y="60" width="160" height="30" as="geometry"/></mxCell><mxCell id="xsoyrQmpPAoxh_bIlHDa-39" value="courier_statuses" style="swimlane;fontStyle=0;childLayout=stackLayout;horizontal=1;startSize=30;horizontalStack=0;resizeParent=1;resizeParentMax=0;resizeLast=0;collapsible=1;marginBottom=0;whiteSpace=wrap;html=1;strokeColor=default;fontColor=#000000;fillColor=#FFFFFF;" parent="1" vertex="1"><mxGeometry x="490" y="340" width="130" height="90" as="geometry"/></mxCell><mxCell id="xsoyrQmpPAoxh_bIlHDa-40" value="id:&lt;span style=&quot;white-space: pre;&quot;&gt;&#9;&lt;/span&gt;&lt;span style=&quot;white-space: pre;&quot;&gt;&#9;&lt;/span&gt;&lt;span style=&quot;white-space: pre;&quot;&gt;&#9;&lt;/span&gt;int" style="text;strokeColor=none;fillColor=none;align=left;verticalAlign=middle;spacingLeft=4;spacingRight=4;overflow=hidden;points=[[0,0.5],[1,0.5]];portConstraint=eastwest;rotatable=0;whiteSpace=wrap;html=1;fontColor=#000000;" parent="xsoyrQmpPAoxh_bIlHDa-39" vertex="1"><mxGeometry y="30" width="130" height="30" as="geometry"/></mxCell><mxCell id="xsoyrQmpPAoxh_bIlHDa-41" value="status:&lt;span style=&quot;white-space: pre;&quot;&gt;&#9;&lt;/span&gt;&lt;span style=&quot;white-space: pre;&quot;&gt;&#9;&lt;/span&gt;string" style="text;strokeColor=none;fillColor=none;align=left;verticalAlign=middle;spacingLeft=4;spacingRight=4;overflow=hidden;points=[[0,0.5],[1,0.5]];portConstraint=eastwest;rotatable=0;whiteSpace=wrap;html=1;fontColor=#000000;" parent="xsoyrQmpPAoxh_bIlHDa-39" vertex="1"><mxGeometry y="60" width="130" height="30" as="geometry"/></mxCell><mxCell id="xsoyrQmpPAoxh_bIlHDa-45" style="edgeStyle=orthogonalEdgeStyle;rounded=0;orthogonalLoop=1;jettySize=auto;html=1;entryX=0;entryY=0.5;entryDx=0;entryDy=0;fontColor=#000000;startArrow=none;startFill=0;endArrow=none;endFill=0;" parent="1" source="xsoyrQmpPAoxh_bIlHDa-33" target="xsoyrQmpPAoxh_bIlHDa-19" edge="1"><mxGeometry relative="1" as="geometry"/></mxCell><mxCell id="xsoyrQmpPAoxh_bIlHDa-50" style="edgeStyle=orthogonalEdgeStyle;rounded=0;orthogonalLoop=1;jettySize=auto;html=1;entryX=1;entryY=0.5;entryDx=0;entryDy=0;fontColor=#000000;startArrow=none;startFill=0;endArrow=none;endFill=0;exitX=1;exitY=0.5;exitDx=0;exitDy=0;" parent="1" source="xsoyrQmpPAoxh_bIlHDa-40" target="xsoyrQmpPAoxh_bIlHDa-38" edge="1"><mxGeometry relative="1" as="geometry"/></mxCell><mxCell id="xsoyrQmpPAoxh_bIlHDa-52" value="admins" style="swimlane;fontStyle=0;childLayout=stackLayout;horizontal=1;startSize=30;horizontalStack=0;resizeParent=1;resizeParentMax=0;resizeLast=0;collapsible=1;marginBottom=0;whiteSpace=wrap;html=1;strokeColor=default;fontColor=#000000;fillColor=#FFFFFF;" parent="1" vertex="1"><mxGeometry x="110" y="230" width="140" height="90" as="geometry"/></mxCell><mxCell id="xsoyrQmpPAoxh_bIlHDa-53" value="id:&lt;span style=&quot;white-space: pre;&quot;&gt;&#9;&lt;/span&gt;&lt;span style=&quot;white-space: pre;&quot;&gt;&#9;&lt;/span&gt;&lt;span style=&quot;white-space: pre;&quot;&gt;&#9;&lt;/span&gt;uuid" style="text;strokeColor=none;fillColor=none;align=left;verticalAlign=middle;spacingLeft=4;spacingRight=4;overflow=hidden;points=[[0,0.5],[1,0.5]];portConstraint=eastwest;rotatable=0;whiteSpace=wrap;html=1;fontColor=#000000;" parent="xsoyrQmpPAoxh_bIlHDa-52" vertex="1"><mxGeometry y="30" width="140" height="30" as="geometry"/></mxCell><mxCell id="xsoyrQmpPAoxh_bIlHDa-57" value="superadmin:&lt;span style=&quot;&quot;&gt;&#9;&lt;span style=&quot;white-space: pre;&quot;&gt;&#9;&lt;/span&gt;&lt;/span&gt;bool" style="text;strokeColor=none;fillColor=none;align=left;verticalAlign=middle;spacingLeft=4;spacingRight=4;overflow=hidden;points=[[0,0.5],[1,0.5]];portConstraint=eastwest;rotatable=0;whiteSpace=wrap;html=1;fontColor=#000000;" parent="xsoyrQmpPAoxh_bIlHDa-52" vertex="1"><mxGeometry y="60" width="140" height="30" as="geometry"/></mxCell><mxCell id="ulHRyIvZ9tMQ6I6q5whv-1" value="persons" style="swimlane;fontStyle=0;childLayout=stackLayout;horizontal=1;startSize=30;horizontalStack=0;resizeParent=1;resizeParentMax=0;resizeLast=0;collapsible=1;marginBottom=0;whiteSpace=wrap;html=1;" parent="1" vertex="1"><mxGeometry x="285" y="200" width="145" height="240" as="geometry"/></mxCell><mxCell id="ulHRyIvZ9tMQ6I6q5whv-12" value="id:&lt;span style=&quot;white-space: pre;&quot;&gt;&#9;&lt;/span&gt;&lt;span style=&quot;white-space: pre;&quot;&gt;&#9;&lt;/span&gt;&lt;span style=&quot;white-space: pre;&quot;&gt;&#9;&lt;/span&gt;&lt;span style=&quot;white-space: pre;&quot;&gt;&#9;&lt;/span&gt;uuid" style="text;strokeColor=none;fillColor=none;align=left;verticalAlign=middle;spacingLeft=4;spacingRight=4;overflow=hidden;points=[[0,0.5],[1,0.5]];portConstraint=eastwest;rotatable=0;whiteSpace=wrap;html=1;" parent="ulHRyIvZ9tMQ6I6q5whv-1" vertex="1"><mxGeometry y="30" width="145" height="30" as="geometry"/></mxCell><mxCell id="ulHRyIvZ9tMQ6I6q5whv-3" value="username:&lt;span style=&quot;white-space: pre;&quot;&gt;&#9;&lt;/span&gt;&lt;span style=&quot;white-space: pre;&quot;&gt;&#9;&lt;/span&gt;string" style="text;strokeColor=none;fillColor=none;align=left;verticalAlign=middle;spacingLeft=4;spacingRight=4;overflow=hidden;points=[[0,0.5],[1,0.5]];portConstraint=eastwest;rotatable=0;whiteSpace=wrap;html=1;" parent="ulHRyIvZ9tMQ6I6q5whv-1" vertex="1"><mxGeometry y="60" width="145" height="30" as="geometry"/></mxCell><mxCell id="ulHRyIvZ9tMQ6I6q5whv-4" value="password:&lt;span style=&quot;white-space: pre;&quot;&gt;&#9;&lt;/span&gt;&lt;span style=&quot;white-space: pre;&quot;&gt;&#9;&lt;/span&gt;string" style="text;strokeColor=none;fillColor=none;align=left;verticalAlign=middle;spacingLeft=4;spacingRight=4;overflow=hidden;points=[[0,0.5],[1,0.5]];portConstraint=eastwest;rotatable=0;whiteSpace=wrap;html=1;" parent="ulHRyIvZ9tMQ6I6q5whv-1" vertex="1"><mxGeometry y="90" width="145" height="30" as="geometry"/></mxCell><mxCell id="ulHRyIvZ9tMQ6I6q5whv-14" value="email:&lt;span style=&quot;white-space: pre;&quot;&gt;&#9;&lt;/span&gt;&lt;span style=&quot;white-space: pre;&quot;&gt;&#9;&lt;/span&gt;&lt;span style=&quot;white-space: pre;&quot;&gt;&#9;&lt;/span&gt;string" style="text;strokeColor=none;fillColor=none;align=left;verticalAlign=middle;spacingLeft=4;spacingRight=4;overflow=hidden;points=[[0,0.5],[1,0.5]];portConstraint=eastwest;rotatable=0;whiteSpace=wrap;html=1;" parent="ulHRyIvZ9tMQ6I6q5whv-1" vertex="1"><mxGeometry y="120" width="145" height="30" as="geometry"/></mxCell><mxCell id="ulHRyIvZ9tMQ6I6q5whv-11" value="active:&lt;span style=&quot;white-space: pre;&quot;&gt;&#9;&lt;/span&gt;&lt;span style=&quot;white-space: pre;&quot;&gt;&#9;&lt;/span&gt;&lt;span style=&quot;white-space: pre;&quot;&gt;&#9;&lt;/span&gt;bool" style="text;strokeColor=none;fillColor=none;align=left;verticalAlign=middle;spacingLeft=4;spacingRight=4;overflow=hidden;points=[[0,0.5],[1,0.5]];portConstraint=eastwest;rotatable=0;whiteSpace=wrap;html=1;" parent="ulHRyIvZ9tMQ6I6q5whv-1" vertex="1"><mxGeometry y="150" width="145" height="30" as="geometry"/></mxCell><mxCell id="ulHRyIvZ9tMQ6I6q5whv-17" value="mobile_number:&lt;span style=&quot;white-space: pre;&quot;&gt;&#9;&lt;/span&gt;int" style="text;strokeColor=none;fillColor=none;align=left;verticalAlign=middle;spacingLeft=4;spacingRight=4;overflow=hidden;points=[[0,0.5],[1,0.5]];portConstraint=eastwest;rotatable=0;whiteSpace=wrap;html=1;fontColor=#000000;" parent="ulHRyIvZ9tMQ6I6q5whv-1" vertex="1"><mxGeometry y="180" width="145" height="30" as="geometry"/></mxCell><mxCell id="ulHRyIvZ9tMQ6I6q5whv-5" value="role_id:&lt;span style=&quot;white-space: pre;&quot;&gt;&#9;&lt;/span&gt;&lt;span style=&quot;white-space: pre;&quot;&gt;&#9;&lt;/span&gt;&lt;span style=&quot;white-space: pre;&quot;&gt;&#9;&lt;/span&gt;int" style="text;strokeColor=none;fillColor=none;align=left;verticalAlign=middle;spacingLeft=4;spacingRight=4;overflow=hidden;points=[[0,0.5],[1,0.5]];portConstraint=eastwest;rotatable=0;whiteSpace=wrap;html=1;" parent="ulHRyIvZ9tMQ6I6q5whv-1" vertex="1"><mxGeometry y="210" width="145" height="30" as="geometry"/></mxCell><mxCell id="ulHRyIvZ9tMQ6I6q5whv-6" value="roles" style="swimlane;fontStyle=0;childLayout=stackLayout;horizontal=1;startSize=30;horizontalStack=0;resizeParent=1;resizeParentMax=0;resizeLast=0;collapsible=1;marginBottom=0;whiteSpace=wrap;html=1;" parent="1" vertex="1"><mxGeometry x="120" y="350" width="100" height="90" as="geometry"/></mxCell><mxCell id="ulHRyIvZ9tMQ6I6q5whv-7" value="id:&lt;span style=&quot;white-space: pre;&quot;&gt;&#9;&lt;/span&gt;&lt;span style=&quot;white-space: pre;&quot;&gt;&#9;&lt;/span&gt;int" style="text;strokeColor=none;fillColor=none;align=left;verticalAlign=middle;spacingLeft=4;spacingRight=4;overflow=hidden;points=[[0,0.5],[1,0.5]];portConstraint=eastwest;rotatable=0;whiteSpace=wrap;html=1;" parent="ulHRyIvZ9tMQ6I6q5whv-6" vertex="1"><mxGeometry y="30" width="100" height="30" as="geometry"/></mxCell><mxCell id="ulHRyIvZ9tMQ6I6q5whv-8" value="role:&lt;span style=&quot;white-space: pre;&quot;&gt;&#9;&lt;/span&gt;&lt;span style=&quot;white-space: pre;&quot;&gt;&#9;&lt;/span&gt;string" style="text;strokeColor=none;fillColor=none;align=left;verticalAlign=middle;spacingLeft=4;spacingRight=4;overflow=hidden;points=[[0,0.5],[1,0.5]];portConstraint=eastwest;rotatable=0;whiteSpace=wrap;html=1;" parent="ulHRyIvZ9tMQ6I6q5whv-6" vertex="1"><mxGeometry y="60" width="100" height="30" as="geometry"/></mxCell><mxCell id="ulHRyIvZ9tMQ6I6q5whv-10" style="edgeStyle=orthogonalEdgeStyle;rounded=0;orthogonalLoop=1;jettySize=auto;html=1;entryX=0;entryY=0.5;entryDx=0;entryDy=0;endArrow=none;endFill=0;" parent="1" source="ulHRyIvZ9tMQ6I6q5whv-7" target="ulHRyIvZ9tMQ6I6q5whv-5" edge="1"><mxGeometry relative="1" as="geometry"/></mxCell><mxCell id="ulHRyIvZ9tMQ6I6q5whv-13" style="edgeStyle=orthogonalEdgeStyle;rounded=0;orthogonalLoop=1;jettySize=auto;html=1;entryX=0.5;entryY=0;entryDx=0;entryDy=0;endArrow=none;endFill=0;startArrow=block;startFill=0;exitX=0.993;exitY=0.054;exitDx=0;exitDy=0;exitPerimeter=0;" parent="1" source="ulHRyIvZ9tMQ6I6q5whv-1" target="xsoyrQmpPAoxh_bIlHDa-35" edge="1"><mxGeometry relative="1" as="geometry"><Array as="points"><mxPoint x="530" y="213"/></Array><mxPoint x="440" y="210" as="sourcePoint"/></mxGeometry></mxCell><mxCell id="ulHRyIvZ9tMQ6I6q5whv-15" style="edgeStyle=orthogonalEdgeStyle;rounded=0;orthogonalLoop=1;jettySize=auto;html=1;entryX=0.5;entryY=0;entryDx=0;entryDy=0;endArrow=none;endFill=0;startArrow=block;startFill=0;" parent="1" target="xsoyrQmpPAoxh_bIlHDa-2" edge="1"><mxGeometry relative="1" as="geometry"><mxPoint x="282" y="210" as="sourcePoint"/><Array as="points"><mxPoint x="282" y="210"/><mxPoint x="5" y="210"/></Array></mxGeometry></mxCell><mxCell id="ulHRyIvZ9tMQ6I6q5whv-16" style="edgeStyle=orthogonalEdgeStyle;rounded=0;orthogonalLoop=1;jettySize=auto;html=1;entryX=0.5;entryY=0;entryDx=0;entryDy=0;endArrow=none;endFill=0;startArrow=block;startFill=0;" parent="1" target="xsoyrQmpPAoxh_bIlHDa-52" edge="1"><mxGeometry relative="1" as="geometry"><mxPoint x="280" y="220" as="sourcePoint"/><Array as="points"><mxPoint x="180" y="220"/></Array></mxGeometry></mxCell><mxCell id="VH7FuxmsLqqs_pFyywKN-8" style="edgeStyle=orthogonalEdgeStyle;rounded=0;orthogonalLoop=1;jettySize=auto;html=1;entryX=0;entryY=0.5;entryDx=0;entryDy=0;endArrow=none;endFill=0;" parent="1" source="VH7FuxmsLqqs_pFyywKN-4" target="xsoyrQmpPAoxh_bIlHDa-33" edge="1"><mxGeometry relative="1" as="geometry"/></mxCell><mxCell id="VH7FuxmsLqqs_pFyywKN-4" value="order_statuses" style="swimlane;fontStyle=0;childLayout=stackLayout;horizontal=1;startSize=30;horizontalStack=0;resizeParent=1;resizeParentMax=0;resizeLast=0;collapsible=1;marginBottom=0;whiteSpace=wrap;html=1;" parent="1" vertex="1"><mxGeometry x="-200" y="720" width="140" height="90" as="geometry"/></mxCell><mxCell id="VH7FuxmsLqqs_pFyywKN-5" value="id:&lt;span style=&quot;white-space: pre;&quot;&gt;&#9;&lt;/span&gt;&lt;span style=&quot;white-space: pre;&quot;&gt;&#9;&lt;/span&gt;&lt;span style=&quot;white-space: pre;&quot;&gt;&#9;&lt;/span&gt;int" style="text;strokeColor=none;fillColor=none;align=left;verticalAlign=middle;spacingLeft=4;spacingRight=4;overflow=hidden;points=[[0,0.5],[1,0.5]];portConstraint=eastwest;rotatable=0;whiteSpace=wrap;html=1;" parent="VH7FuxmsLqqs_pFyywKN-4" vertex="1"><mxGeometry y="30" width="140" height="30" as="geometry"/></mxCell><mxCell id="VH7FuxmsLqqs_pFyywKN-6" value="status:&lt;span style=&quot;white-space: pre;&quot;&gt;&#9;&lt;/span&gt;&lt;span style=&quot;white-space: pre;&quot;&gt;&#9;&lt;/span&gt;string" style="text;strokeColor=none;fillColor=none;align=left;verticalAlign=middle;spacingLeft=4;spacingRight=4;overflow=hidden;points=[[0,0.5],[1,0.5]];portConstraint=eastwest;rotatable=0;whiteSpace=wrap;html=1;" parent="VH7FuxmsLqqs_pFyywKN-4" vertex="1"><mxGeometry y="60" width="140" height="30" as="geometry"/></mxCell><mxCell id="VH7FuxmsLqqs_pFyywKN-11" style="edgeStyle=orthogonalEdgeStyle;rounded=0;orthogonalLoop=1;jettySize=auto;html=1;endArrow=none;endFill=0;" parent="1" source="xsoyrQmpPAoxh_bIlHDa-7" target="xsoyrQmpPAoxh_bIlHDa-12" edge="1"><mxGeometry relative="1" as="geometry"/></mxCell><mxCell id="VH7FuxmsLqqs_pFyywKN-12" style="edgeStyle=orthogonalEdgeStyle;rounded=0;orthogonalLoop=1;jettySize=auto;html=1;entryX=0;entryY=0.5;entryDx=0;entryDy=0;endArrow=classic;endFill=1;" parent="1" source="xsoyrQmpPAoxh_bIlHDa-18" target="xsoyrQmpPAoxh_bIlHDa-3" edge="1"><mxGeometry relative="1" as="geometry"/></mxCell><mxCell id="VH7FuxmsLqqs_pFyywKN-13" value="order_location" style="swimlane;fontStyle=0;childLayout=stackLayout;horizontal=1;startSize=30;horizontalStack=0;resizeParent=1;resizeParentMax=0;resizeLast=0;collapsible=1;marginBottom=0;whiteSpace=wrap;html=1;" parent="1" vertex="1"><mxGeometry x="490" y="540" width="160" height="180" as="geometry"/></mxCell><mxCell id="VH7FuxmsLqqs_pFyywKN-14" value="id:&lt;span style=&quot;white-space: pre;&quot;&gt;&#9;&lt;/span&gt;&lt;span style=&quot;white-space: pre;&quot;&gt;&#9;&lt;/span&gt;&lt;span style=&quot;white-space: pre;&quot;&gt;&#9;&lt;/span&gt;&lt;span style=&quot;white-space: pre;&quot;&gt;&#9;&lt;/span&gt;uuid" style="text;strokeColor=none;fillColor=none;align=left;verticalAlign=middle;spacingLeft=4;spacingRight=4;overflow=hidden;points=[[0,0.5],[1,0.5]];portConstraint=eastwest;rotatable=0;whiteSpace=wrap;html=1;" parent="VH7FuxmsLqqs_pFyywKN-13" vertex="1"><mxGeometry y="30" width="160" height="30" as="geometry"/></mxCell><mxCell id="VH7FuxmsLqqs_pFyywKN-15" value="start_location:&lt;span style=&quot;white-space: pre;&quot;&gt;&#9;&lt;/span&gt;&lt;span style=&quot;white-space: pre;&quot;&gt;&#9;&lt;/span&gt;point" style="text;strokeColor=none;fillColor=none;align=left;verticalAlign=middle;spacingLeft=4;spacingRight=4;overflow=hidden;points=[[0,0.5],[1,0.5]];portConstraint=eastwest;rotatable=0;whiteSpace=wrap;html=1;" parent="VH7FuxmsLqqs_pFyywKN-13" vertex="1"><mxGeometry y="60" width="160" height="30" as="geometry"/></mxCell><mxCell id="VH7FuxmsLqqs_pFyywKN-16" value="finish_location:&lt;span style=&quot;white-space: pre;&quot;&gt;&#9;&lt;/span&gt;point" style="text;strokeColor=none;fillColor=none;align=left;verticalAlign=middle;spacingLeft=4;spacingRight=4;overflow=hidden;points=[[0,0.5],[1,0.5]];portConstraint=eastwest;rotatable=0;whiteSpace=wrap;html=1;" parent="VH7FuxmsLqqs_pFyywKN-13" vertex="1"><mxGeometry y="90" width="160" height="30" as="geometry"/></mxCell><mxCell id="VH7FuxmsLqqs_pFyywKN-21" value="coordinates:&lt;span style=&quot;white-space: pre;&quot;&gt;&#9;&lt;span style=&quot;white-space: pre;&quot;&gt;&#9;&lt;/span&gt;&lt;/span&gt;point[]" style="text;strokeColor=none;fillColor=none;align=left;verticalAlign=middle;spacingLeft=4;spacingRight=4;overflow=hidden;points=[[0,0.5],[1,0.5]];portConstraint=eastwest;rotatable=0;whiteSpace=wrap;html=1;" parent="VH7FuxmsLqqs_pFyywKN-13" vertex="1"><mxGeometry y="120" width="160" height="30" as="geometry"/></mxCell><mxCell id="VH7FuxmsLqqs_pFyywKN-22" value="current_location:&lt;span style=&quot;white-space: pre;&quot;&gt;&#9;&lt;/span&gt;point" style="text;strokeColor=none;fillColor=none;align=left;verticalAlign=middle;spacingLeft=4;spacingRight=4;overflow=hidden;points=[[0,0.5],[1,0.5]];portConstraint=eastwest;rotatable=0;whiteSpace=wrap;html=1;" parent="VH7FuxmsLqqs_pFyywKN-13" vertex="1"><mxGeometry y="150" width="160" height="30" as="geometry"/></mxCell><mxCell id="VH7FuxmsLqqs_pFyywKN-18" style="edgeStyle=orthogonalEdgeStyle;rounded=0;orthogonalLoop=1;jettySize=auto;html=1;entryX=0;entryY=0.5;entryDx=0;entryDy=0;endArrow=classic;endFill=1;" parent="1" source="xsoyrQmpPAoxh_bIlHDa-26" target="xsoyrQmpPAoxh_bIlHDa-36" edge="1"><mxGeometry relative="1" as="geometry"><Array as="points"><mxPoint x="450" y="605"/><mxPoint x="450" y="275"/></Array></mxGeometry></mxCell><mxCell id="VH7FuxmsLqqs_pFyywKN-23" style="edgeStyle=orthogonalEdgeStyle;rounded=0;orthogonalLoop=1;jettySize=auto;html=1;entryX=0;entryY=0.5;entryDx=0;entryDy=0;endArrow=none;endFill=0;" parent="1" source="VH7FuxmsLqqs_pFyywKN-19" target="VH7FuxmsLqqs_pFyywKN-14" edge="1"><mxGeometry relative="1" as="geometry"><Array as="points"><mxPoint x="460" y="665"/><mxPoint x="460" y="585"/></Array></mxGeometry></mxCell></root></mxGraphModel></diagram></mxfile>